<svg width="29" height="28" viewBox="0 0 29 28" fill="none" xmlns="http://www.w3.org/2000/svg">
<path d="M2.29472 4.21712C2.29472 2.92846 3.33939 1.88379 4.62806 1.88379H10.3719C11.6606 1.88379 12.7053 2.92846 12.7053 4.21712V9.96101C12.7053 11.2497 11.6606 12.2943 10.3719 12.2943H4.62806C3.33939 12.2943 2.29472 11.2497 2.29472 9.96101V4.21712Z" fill="white"/>
<path d="M16.2053 18.1278C16.2053 16.8391 17.2499 15.7944 18.5386 15.7944H24.2825C25.5712 15.7944 26.6158 16.8391 26.6158 18.1278V23.8717C26.6158 25.1603 25.5712 26.205 24.2825 26.205H18.5386C17.2499 26.205 16.2053 25.1603 16.2053 23.8717V18.1278Z" fill="white"/>
<circle cx="21.4106" cy="7.08906" r="5.20528" fill="white"/>
<circle cx="7.5" cy="20.9997" r="5.20527" fill="white"/>
</svg>
