<svg width="29" height="28" viewBox="0 0 29 28" fill="none" xmlns="http://www.w3.org/2000/svg">
<path d="M20.6582 4.70215C22.9643 4.98545 24.75 6.9513 24.75 9.33398V21C24.75 23.5773 22.6603 25.667 20.083 25.667H8.41699C5.83966 25.667 3.75 23.5773 3.75 21V9.33398C3.75 6.9513 5.53569 4.98545 7.8418 4.70215C7.83614 4.7869 7.83301 4.8728 7.83301 4.95898C7.83321 7.05289 9.53105 8.75 11.625 8.75H16.875C18.969 8.75 20.6668 7.05289 20.667 4.95898C20.667 4.8728 20.6639 4.7869 20.6582 4.70215ZM9.58301 20.125C9.1 20.1252 8.70816 20.517 8.70801 21C8.70801 21.4831 9.09991 21.8748 9.58301 21.875H14.25C14.7332 21.875 15.125 21.4832 15.125 21C15.1248 20.5169 14.7332 20.125 14.25 20.125H9.58301ZM9.58301 15.459C9.09991 15.4592 8.70801 15.8508 8.70801 16.334C8.70821 16.817 9.10003 17.2088 9.58301 17.209H18.917C19.4 17.2088 19.7918 16.817 19.792 16.334C19.792 15.8508 19.4001 15.4592 18.917 15.459H9.58301ZM9.58301 10.792C9.09991 10.7922 8.70801 11.1839 8.70801 11.667C8.70803 12.1501 9.09992 12.5418 9.58301 12.542H18.917C19.4001 12.5418 19.792 12.1501 19.792 11.667C19.792 11.1839 19.4001 10.7922 18.917 10.792H9.58301ZM16.583 2.33301C17.8717 2.33301 18.917 3.37833 18.917 4.66699C18.9168 5.95551 17.8716 7 16.583 7H11.917C10.6284 7 9.58318 5.95551 9.58301 4.66699C9.58301 3.37833 10.6283 2.33301 11.917 2.33301H16.583Z" fill="white"/>
</svg>
