<svg width="28" height="28" viewBox="0 0 28 28" fill="none" xmlns="http://www.w3.org/2000/svg">
<path fill-rule="evenodd" clip-rule="evenodd" d="M18.8771 25.6667H9.12292C6.42939 25.6667 4.24585 23.583 4.24585 21.0126V15.3219C4.24585 14.4957 3.90189 13.7032 3.28963 13.119C1.8711 11.7653 2.05551 9.52243 3.67792 8.39644L11.1314 3.22354C12.8416 2.03665 15.1584 2.03665 16.8686 3.22354L24.3221 8.39644C25.9445 9.52243 26.1289 11.7653 24.7104 13.119C24.0981 13.7032 23.7541 14.4957 23.7541 15.3219V21.0126C23.7541 23.583 21.5706 25.6667 18.8771 25.6667ZM11.6667 20.125C11.1834 20.125 10.7917 20.5168 10.7917 21C10.7917 21.4833 11.1834 21.875 11.6667 21.875H16.3333C16.8166 21.875 17.2083 21.4833 17.2083 21C17.2083 20.5168 16.8166 20.125 16.3333 20.125H11.6667Z" fill="white"/>
</svg>
