<svg width="19" height="20" viewBox="0 0 19 20" fill="none" xmlns="http://www.w3.org/2000/svg">
<path fill-rule="evenodd" clip-rule="evenodd" d="M16.3236 6.82292C15.902 6.93836 15.4582 7 15 7C12.2386 7 10 4.76142 10 2C10 1.65782 10.0344 1.32366 10.0999 1.00079C10.0666 1.00027 10.0333 1 10 1C6.77095 1 4.05382 3.49085 3.67964 6.79403L3.33476 9.8385C3.24906 10.595 2.94246 11.3069 2.45549 11.88C1.42209 13.0964 2.26081 15 3.83014 15H16.1699C17.7392 15 18.5779 13.0964 17.5445 11.88C17.0575 11.3069 16.7509 10.595 16.6652 9.8385L16.3236 6.82292Z" fill="#006C99"/>
<path d="M10 19C11.3565 19 12.5147 18.1992 12.9721 17.0715C12.9912 17.0245 13 16.974 13 16.9233C13 16.6895 12.8105 16.5 12.5767 16.5H7.42329C7.18951 16.5 7 16.6895 7 16.9233C7 16.974 7.00883 17.0245 7.02789 17.0715C7.48526 18.1992 8.64347 19 10 19Z" fill="#006C99"/>
</svg>
