<svg width="24" height="24" viewBox="0 0 24 24" fill="none" xmlns="http://www.w3.org/2000/svg">
<path fill-rule="evenodd" clip-rule="evenodd" d="M18.3236 9.82292C17.902 9.93836 17.4582 10 17 10C14.2386 10 12 7.76142 12 5C12 4.65782 12.0344 4.32366 12.0999 4.00079C12.0666 4.00027 12.0333 4 12 4C8.77095 4 6.05382 6.49085 5.67964 9.79403L5.33476 12.8385C5.24906 13.595 4.94246 14.3069 4.45549 14.88C3.42209 16.0964 4.26081 18 5.83014 18H18.1699C19.7392 18 20.5779 16.0964 19.5445 14.88C19.0575 14.3069 18.7509 13.595 18.6652 12.8385L18.3236 9.82292Z" fill="#006C99"/>
<path fill-rule="evenodd" clip-rule="evenodd" d="M5.67636 9.82292C6.09795 9.93836 6.54178 10 7 10C9.76142 10 12 7.76142 12 5C12 4.65782 11.9656 4.32366 11.9001 4.00079C11.9334 4.00027 11.9667 4 12 4C15.2291 4 17.9462 6.49085 18.3204 9.79403L18.6652 12.8385C18.7509 13.595 19.0575 14.3069 19.5445 14.88C20.5779 16.0964 19.7392 18 18.1699 18H5.83013C4.26081 18 3.42208 16.0964 4.45549 14.88C4.94246 14.3069 5.24906 13.595 5.33476 12.8385L5.67636 9.82292Z" fill="#006C99"/>
<path d="M12 22C13.3565 22 14.5147 21.1992 14.9721 20.0715C14.9912 20.0245 15 19.974 15 19.9233C15 19.6895 14.8105 19.5 14.5767 19.5H9.42329C9.18951 19.5 9 19.6895 9 19.9233C9 19.974 9.00883 20.0245 9.02789 20.0715C9.48526 21.1992 10.6435 22 12 22Z" fill="#006C99"/>
</svg>
