<svg width="29" height="28" viewBox="0 0 29 28" fill="none" xmlns="http://www.w3.org/2000/svg">
<path fill-rule="evenodd" clip-rule="evenodd" d="M14.75 6.44493L15.6425 5.486C18.1073 2.838 22.1034 2.838 24.5681 5.486C27.0328 8.134 27.0328 12.4273 24.5681 15.0753L16.5351 23.7056C15.5492 24.7648 13.9508 24.7648 12.9649 23.7056L4.93187 15.0753C2.46715 12.4273 2.46715 8.134 4.93187 5.486C7.3966 2.838 11.3927 2.838 13.8574 5.486L14.75 6.44493ZM20.5833 6.125C20.1001 6.125 19.7083 6.51675 19.7083 7C19.7083 7.48325 20.1001 7.875 20.5833 7.875C21.3887 7.875 22.0417 8.52792 22.0417 9.33333C22.0417 9.81658 22.4334 10.2083 22.9167 10.2083C23.3999 10.2083 23.7917 9.81658 23.7917 9.33333C23.7917 7.56142 22.3552 6.125 20.5833 6.125Z" fill="white"/>
</svg>
