<svg width="28" height="28" viewBox="0 0 28 28" fill="none" xmlns="http://www.w3.org/2000/svg">
<rect width="5" height="7" transform="translate(18 6)" fill="#FC9700"/>
<path fill-rule="evenodd" clip-rule="evenodd" d="M14 6.44493L14.8925 5.486C17.3573 2.838 21.3534 2.838 23.8181 5.486C26.2828 8.134 26.2828 12.4273 23.8181 15.0753L15.7851 23.7056C14.7992 24.7648 13.2008 24.7648 12.2149 23.7056L4.18187 15.0753C1.71715 12.4273 1.71715 8.134 4.18187 5.486C6.6466 2.838 10.6427 2.838 13.1074 5.486L14 6.44493ZM19.8333 6.125C19.3501 6.125 18.9583 6.51675 18.9583 7C18.9583 7.48325 19.3501 7.875 19.8333 7.875C20.6387 7.875 21.2917 8.52792 21.2917 9.33333C21.2917 9.81658 21.6834 10.2083 22.1667 10.2083C22.6499 10.2083 23.0417 9.81658 23.0417 9.33333C23.0417 7.56142 21.6052 6.125 19.8333 6.125Z" fill="white"/>
</svg>
