<svg width="24" height="24" viewBox="0 0 24 24" fill="none" xmlns="http://www.w3.org/2000/svg">
<rect width="10" height="6" transform="translate(7 16)" fill="#F8B001"/>
<path fill-rule="evenodd" clip-rule="evenodd" d="M16.5437 23.3333H6.78959C4.09606 23.3333 1.91251 21.2496 1.91251 18.6792V12.9885C1.91251 12.1623 1.56855 11.3699 0.956303 10.7856C-0.462227 9.43192 -0.277819 7.18905 1.34459 6.06307L8.79811 0.890161C10.5083 -0.29672 12.8251 -0.29672 14.5352 0.890161L21.9887 6.06307C23.6112 7.18905 23.7956 9.43192 22.377 10.7856C21.7648 11.3699 21.4208 12.1623 21.4208 12.9885V18.6792C21.4208 21.2496 19.2373 23.3333 16.5437 23.3333ZM9.33333 17.7917C8.85008 17.7917 8.45833 18.1834 8.45833 18.6667C8.45833 19.1499 8.85008 19.5417 9.33333 19.5417H14C14.4832 19.5417 14.875 19.1499 14.875 18.6667C14.875 18.1834 14.4832 17.7917 14 17.7917H9.33333Z" fill="white"/>
</svg>
