<svg width="28" height="28" viewBox="0 0 28 28" fill="none" xmlns="http://www.w3.org/2000/svg">
<rect x="4" y="2" width="20" height="22" rx="10" fill="#F9A801"/>
<path d="M20.4082 4.70215C22.7143 4.98545 24.5 6.9513 24.5 9.33398V21C24.5 23.5773 22.4103 25.667 19.833 25.667H8.16699C5.58966 25.667 3.5 23.5773 3.5 21V9.33398C3.5 6.9513 5.28569 4.98545 7.5918 4.70215C7.58614 4.7869 7.58301 4.8728 7.58301 4.95898C7.58321 7.05289 9.28105 8.75 11.375 8.75H16.625C18.719 8.75 20.4168 7.05289 20.417 4.95898C20.417 4.8728 20.4139 4.7869 20.4082 4.70215ZM9.33301 20.125C8.85 20.1252 8.45816 20.517 8.45801 21C8.45801 21.4831 8.84991 21.8748 9.33301 21.875H14C14.4832 21.875 14.875 21.4832 14.875 21C14.8748 20.5169 14.4832 20.125 14 20.125H9.33301ZM9.33301 15.459C8.84991 15.4592 8.45801 15.8508 8.45801 16.334C8.45821 16.817 8.85003 17.2088 9.33301 17.209H18.667C19.15 17.2088 19.5418 16.817 19.542 16.334C19.542 15.8508 19.1501 15.4592 18.667 15.459H9.33301ZM9.33301 10.792C8.84991 10.7922 8.45801 11.1839 8.45801 11.667C8.45803 12.1501 8.84992 12.5418 9.33301 12.542H18.667C19.1501 12.5418 19.542 12.1501 19.542 11.667C19.542 11.1839 19.1501 10.7922 18.667 10.792H9.33301ZM16.333 2.33301C17.6217 2.33301 18.667 3.37833 18.667 4.66699C18.6668 5.95551 17.6216 7 16.333 7H11.667C10.3784 7 9.33318 5.95551 9.33301 4.66699C9.33301 3.37833 10.3783 2.33301 11.667 2.33301H16.333Z" fill="white"/>
</svg>
